<svg width="25" height="24" viewBox="0 0 25 24" fill="none" xmlns="http://www.w3.org/2000/svg">
<path d="M7.23514 19.7713L8.10648 20.2371C9.45681 20.959 10.9648 21.3356 12.496 21.3333L12.5 21.3333C17.6548 21.3333 21.8333 17.1548 21.8333 12C21.8333 6.84516 17.6548 2.66667 12.5 2.66667C7.34517 2.66667 3.16668 6.84516 3.16668 12V12.004C3.16437 13.5352 3.54097 15.0432 4.26289 16.3935L4.72873 17.2649L4.01244 20.4876L7.23514 19.7713ZM0.500014 24L1.91121 17.6508C0.981852 15.9125 0.497046 13.9712 0.500014 12C0.500014 5.3724 5.87241 0 12.5 0C19.1276 0 24.5 5.3724 24.5 12C24.5 18.6276 19.1276 24 12.5 24C10.5288 24.003 8.58755 23.5181 6.84921 22.5888L0.500014 24Z" fill="#0F1828"/>
</svg>
