<svg width="22" height="6" viewBox="0 0 22 6" fill="none" xmlns="http://www.w3.org/2000/svg">
<path d="M19 5.66668C17.5272 5.66668 16.3333 4.47277 16.3333 3.00001C16.3333 1.52725 17.5272 0.333344 19 0.333344C20.4727 0.333344 21.6666 1.52725 21.6666 3.00001C21.6666 3.70725 21.3857 4.38553 20.8856 4.88563C20.3855 5.38573 19.7072 5.66668 19 5.66668ZM11 5.66668C9.52722 5.66668 8.33331 4.47277 8.33331 3.00001C8.33331 1.52725 9.52722 0.333344 11 0.333344C12.4727 0.333344 13.6666 1.52725 13.6666 3.00001C13.6666 3.70725 13.3857 4.38553 12.8856 4.88563C12.3855 5.38573 11.7072 5.66668 11 5.66668ZM2.99998 5.66668C1.52722 5.66668 0.333313 4.47277 0.333313 3.00001C0.333313 1.52725 1.52722 0.333344 2.99998 0.333344C4.47274 0.333344 5.66665 1.52725 5.66665 3.00001C5.66665 3.70725 5.38569 4.38553 4.8856 4.88563C4.3855 5.38573 3.70722 5.66668 2.99998 5.66668Z" fill="#0F1828"/>
</svg>
